<svg xmlns="http://www.w3.org/2000/svg" viewBox="0 0 200 200">
  <defs>
    <linearGradient id="grad1" x1="0%" y1="0%" x2="100%" y2="100%">
      <stop offset="0%" style="stop-color:#6366f1;stop-opacity:1" />
      <stop offset="100%" style="stop-color:#8b5cf6;stop-opacity:1" />
    </linearGradient>
    <linearGradient id="grad2" x1="0%" y1="0%" x2="100%" y2="100%">
      <stop offset="0%" style="stop-color:#a78bfa;stop-opacity:1" />
      <stop offset="100%" style="stop-color:#c4b5fd;stop-opacity:1" />
    </linearGradient>
  </defs>
  
  <!-- Background circle -->
  <circle cx="100" cy="100" r="90" fill="url(#grad1)"/>
  
  <!-- Shield shape (Guardian/Hafiz symbol) -->
  <path d="M100 30 L150 50 L150 100 C150 140 100 170 100 170 C100 170 50 140 50 100 L50 50 Z" 
        fill="white" opacity="0.95"/>
  
  <!-- Inner shield detail -->
  <path d="M100 45 L140 60 L140 100 C140 130 100 155 100 155 C100 155 60 130 60 100 L60 60 Z" 
        fill="url(#grad2)" opacity="0.3"/>
  
  <!-- S3 bucket icon -->
  <g transform="translate(75, 70)">
    <!-- Bucket body -->
    <path d="M0 15 L5 50 L45 50 L50 15" 
          fill="none" stroke="url(#grad1)" stroke-width="4" stroke-linecap="round"/>
    <!-- Bucket top ellipse -->
    <ellipse cx="25" cy="15" rx="25" ry="8" 
             fill="none" stroke="url(#grad1)" stroke-width="4"/>
    <!-- Bucket bottom ellipse -->
    <ellipse cx="25" cy="50" rx="20" ry="6" 
             fill="none" stroke="url(#grad1)" stroke-width="4"/>
  </g>
  
  <!-- Lock symbol on bucket -->
  <g transform="translate(90, 95)">
    <rect x="0" y="8" width="20" height="15" rx="2" 
          fill="url(#grad1)"/>
    <path d="M4 8 L4 4 C4 0 16 0 16 4 L16 8" 
          fill="none" stroke="url(#grad1)" stroke-width="3"/>
    <circle cx="10" cy="15" r="2" fill="white"/>
  </g>
</svg>
